<?xml version="1.0" standalone="no"?>
<!DOCTYPE svg PUBLIC "-//W3C//DTD SVG 20010904//EN"
 "http://www.w3.org/TR/2001/REC-SVG-20010904/DTD/svg10.dtd">
<svg version="1.0" xmlns="http://www.w3.org/2000/svg"
 width="510.000000pt" height="283.000000pt" viewBox="0 0 510.000000 283.000000"
 preserveAspectRatio="xMidYMid meet">

<g transform="translate(0.000000,283.000000) scale(0.100000,-0.100000)"
fill="#000000" stroke="none">
<path d="M2195 1358 c-125 -299 -230 -549 -232 -555 -4 -10 38 -13 190 -13
l195 0 29 88 30 87 220 3 221 2 29 -87 30 -88 200 -3 201 -2 -108 257 c-60
142 -164 391 -232 553 l-124 295 -211 3 -210 2 -228 -542z m508 40 l63 -188
-137 0 -137 0 65 196 c36 108 69 192 73 187 5 -4 37 -92 73 -195z"/>
<path d="M220 1325 l0 -555 190 0 190 0 0 555 0 555 -190 0 -190 0 0 -555z"/>
<path d="M800 1324 l0 -556 358 5 c393 5 433 10 543 69 112 59 205 187 228
313 6 32 11 109 11 170 0 244 -85 412 -250 495 -107 54 -157 60 -542 60 l-348
0 0 -556z m611 291 c57 -20 96 -56 122 -114 29 -64 32 -281 4 -353 -37 -94
-108 -128 -272 -128 l-85 0 0 305 0 305 93 0 c57 0 111 -6 138 -15z"/>
<path d="M1310 1251 l0 -108 41 -7 c48 -8 84 10 99 50 18 46 11 58 -65 116
l-75 57 0 -108z"/>
<path d="M3440 1325 l0 -555 155 0 155 0 0 417 c0 229 3 414 6 410 4 -3 59
-190 123 -414 l117 -408 141 -3 142 -3 20 68 c11 38 65 225 120 417 56 192
103 352 106 354 3 3 5 -184 5 -416 l0 -422 155 0 155 0 0 555 0 555 -253 0
-253 0 -94 -330 c-52 -181 -97 -330 -100 -330 -3 0 -48 148 -100 330 l-95 330
-252 0 -253 0 0 -555z"/>
<path d="M3283 1380 l-62 -57 47 -121 c41 -105 64 -143 79 -129 2 2 2 85 1
184 l-3 181 -62 -58z"/>
<path d="M4960 791 l0 -179 -107 -7 c-195 -14 -732 7 -1078 40 -82 8 -212 15
-287 15 -85 0 -138 4 -138 10 0 6 -32 10 -77 9 -77 -1 -77 -1 -28 -10 123 -21
500 -60 713 -74 129 -8 406 -18 618 -22 l384 -6 0 -104 0 -103 -322 0 c-992 1
-1936 111 -2484 291 -79 26 -104 29 -180 27 l-88 -3 116 -38 c211 -69 485
-127 898 -191 488 -75 1099 -116 1733 -116 l317 0 0 -131 0 -132 -542 6 c-535
6 -692 12 -1078 43 -792 62 -1485 190 -1960 361 -105 38 -305 131 -350 163
-22 16 -41 20 -77 18 l-47 -3 64 -42 c399 -258 1324 -471 2420 -558 391 -30
545 -36 1083 -42 l547 -6 0 482 0 481 -25 0 -25 0 0 -179z"/>
<path d="M2495 850 c-4 -6 -5 -13 -4 -15 6 -5 301 -85 316 -85 14 0 17 18 5
37 -23 36 -300 91 -317 63z"/>
<path d="M3870 838 c0 -9 5 -20 10 -23 13 -8 13 5 0 25 -8 13 -10 13 -10 -2z"/>
<path d="M4420 821 c0 -5 -3 -16 -6 -25 -4 -11 -1 -16 10 -16 10 0 16 9 16 25
0 14 -4 25 -10 25 -5 0 -10 -4 -10 -9z"/>
<path d="M1788 762 c-34 -21 -35 -26 -3 -40 37 -17 42 -15 53 17 8 24 7 31 -5
35 -8 3 -15 6 -16 5 -1 0 -14 -8 -29 -17z"/>
</g>
</svg>
